Coordinates
version=1
nRows=60
nColumns=12
inDegrees=yes

Units are S.I. units (second, meters, Newtons, ...)
Angles are in degrees

endheader
time	SC_y	SC_z	SC_x	AC_y	AC_z	AC_x	GH_y	GH_z	GH_yy	EL_x	PS_y
       0.0              -42.03          3.017          21.31          34.45         -3.167           13.5          50.39           11.3         -74.84          110.1          79.49
   0.01375              -42.03          3.022           21.3          34.46         -3.168           13.5           50.4          11.31         -74.85          110.1           79.5
    0.0275              -42.03          3.028           21.3          34.46         -3.168           13.5          50.41          11.31         -74.87          110.1          79.51
   0.04125              -42.03          3.034           21.3          34.47         -3.169          13.49          50.43          11.32         -74.88          110.0          79.52
     0.055              -42.03           3.04           21.3          34.47         -3.169          13.49          50.44          11.32          -74.9          110.0          79.54
   0.06875              -42.03          3.047           21.3          34.48          -3.17          13.49          50.46          11.33         -74.92          110.0          79.55
    0.0825              -42.03          3.054          21.29          34.48          -3.17          13.49          50.47          11.33         -74.94          110.0          79.57
   0.09625              -42.03          3.061          21.29          34.49         -3.171          13.49          50.49          11.34         -74.96          110.0          79.58
      0.11              -42.03           3.07          21.29           34.5         -3.171          13.48          50.51          11.35         -74.98          109.9           79.6
    0.1238              -42.03          3.078          21.29           34.5         -3.172          13.48          50.53          11.36         -75.01          109.9          79.62
    0.1375              -42.03          3.088          21.28          34.51         -3.173          13.48          50.55          11.37         -75.03          109.9          79.64
    0.1513              -42.03          3.098          21.28          34.52         -3.173          13.48          50.58          11.37         -75.06          109.9          79.66
     0.165              -42.03          3.109          21.28          34.53         -3.174          13.47           50.6          11.38         -75.09          109.8          79.69
    0.1788              -42.03          3.121          21.27          34.54         -3.175          13.47          50.63           11.4         -75.12          109.8          79.71
    0.1925              -42.03          3.134          21.27          34.55         -3.176          13.47          50.66          11.41         -75.16          109.8          79.74
    0.2063              -42.03          3.148          21.27          34.56         -3.177          13.46          50.69          11.42          -75.2          109.7          79.77
      0.22              -42.03          3.163          21.26          34.57         -3.178          13.46          50.73          11.43         -75.24          109.7           79.8
    0.2338              -42.03          3.179          21.26          34.59         -3.179          13.46          50.77          11.45         -75.28          109.6          79.84
    0.2475              -42.03          3.197          21.25           34.6         -3.181          13.45          50.81          11.46         -75.33          109.6          79.88
    0.2613              -42.03          3.217          21.24          34.62         -3.182          13.45          50.86          11.48         -75.38          109.5          79.92
     0.275              -42.03          3.238          21.24          34.63         -3.184          13.44          50.91           11.5         -75.44          109.4          79.97
    0.2888              -42.04          3.262          21.23          34.65         -3.185          13.44          50.96          11.52         -75.51          109.4          80.02
    0.3025              -42.04          3.288          21.22          34.67         -3.187          13.43          51.02          11.55         -75.58          109.3          80.08
    0.3163              -42.04          3.317          21.21           34.7         -3.189          13.42          51.09          11.57         -75.66          109.2          80.14
      0.33              -42.04           3.35           21.2          34.72         -3.192          13.41          51.17           11.6         -75.75          109.1          80.21
    0.3438              -42.04          3.386          21.19          34.75         -3.194           13.4          51.25          11.64         -75.85          109.0          80.29
    0.3575              -42.04          3.426          21.18          34.79         -3.197          13.39          51.35          11.67         -75.96          108.9          80.37
    0.3713              -42.04          3.472          21.16          34.82         -3.201          13.38          51.45          11.71         -76.08          108.8          80.47
     0.385              -42.04          3.523          21.15          34.87         -3.204          13.37          51.57          11.76         -76.22          108.6          80.58
    0.3988              -42.05          3.581          21.13          34.91         -3.209          13.35          51.71          11.81         -76.38          108.5          80.71
    0.4125              -42.05          3.648          21.11          34.97         -3.213          13.34          51.87          11.87         -76.57          108.3          80.85
    0.4263              -42.05          3.724          21.09          35.03         -3.219          13.32          52.05          11.94         -76.78          108.0          81.02
      0.44              -42.05          3.813          21.06           35.1         -3.225          13.29          52.25          12.02         -77.02          107.8          81.21
    0.4538              -42.06          3.915          21.03          35.18         -3.233          13.27          52.49          12.12          -77.3          107.5          81.43
    0.4675              -42.06          4.035          20.99          35.28         -3.241          13.24          52.77          12.23         -77.63          107.2          81.69
    0.4813              -42.07          4.176          20.94           35.4         -3.252           13.2          53.11          12.36         -78.01          106.7           82.0
     0.495              -42.07          4.345          20.89          35.53         -3.264          13.15           53.5          12.51         -78.47          106.3          82.36
    0.5088              -42.08          4.546          20.83           35.7         -3.279           13.1          53.97          12.69         -79.03          105.7           82.8
    0.5225              -42.09           4.79          20.75           35.9         -3.296          13.04          54.54          12.91         -79.69          105.0          83.32
    0.5363               -42.1          5.087          20.66          36.14         -3.318          12.96          55.24          13.18         -80.51          104.1          83.97
      0.55              -42.11          5.455          20.55          36.44         -3.345          12.87           56.1          13.52         -81.51          103.1          84.76
    0.5638              -42.13          5.913           20.4          36.81         -3.378          12.75          57.18          13.94         -82.77          101.7          85.76
    0.5775              -42.15           6.49          20.22          37.28          -3.42           12.6          58.53          14.46         -84.35          100.1           87.0
    0.5913              -42.17          7.223          19.99          37.88         -3.473          12.41          60.25          15.13         -86.36          97.96          88.59
     0.605               -42.2          8.162           19.7          38.64         -3.542          12.17          62.45          15.98         -88.93          95.25          90.62
    0.6188              -42.24          9.367          19.32          39.62         -3.629          11.85          65.28          17.08         -92.23          91.78          93.23
    0.6325               -42.3          10.91          18.84          40.87         -3.741          11.46          68.89          18.48         -96.45          87.34          96.56
    0.6463              -42.36          12.84          18.24          42.45         -3.882          10.96          73.43          20.24         -101.7          81.77          100.8
      0.66              -42.44           15.2           17.5          44.37         -4.054          10.35          78.96          22.39         -108.2          74.97          105.9
    0.6738              -42.54          17.93          16.65          46.59         -4.252          9.638          85.37          24.88         -115.7          67.09          111.8
    0.6875              -42.64          20.89          15.72           49.0         -4.468          8.872          92.31          27.57         -123.8          58.55          118.2
    0.7013              -42.74          23.85           14.8          51.41         -4.683          8.105          99.26          30.27         -131.9          50.02          124.6
     0.715              -42.83          26.59          13.94          53.64         -4.882          7.398          105.7          32.76         -139.4          42.14          130.5
    0.7288              -42.92          28.95          13.21          55.56         -5.053          6.788          111.2           34.9         -145.9          35.34          135.6
    0.7425              -42.98          30.88           12.6          57.13         -5.194          6.287          115.7          36.66         -151.2          29.76          139.8
    0.7563              -43.03          32.42          12.12          58.38         -5.306          5.888          119.3          38.06         -155.4          25.33          143.1
      0.77              -43.08          33.63          11.75          59.36         -5.394          5.576          122.2          39.16         -158.7          21.85          145.7
    0.7838              -43.11          34.57          11.45          60.13         -5.462          5.333          124.4          40.02         -161.2          19.15          147.8
    0.7975              -43.13           35.3          11.22          60.73         -5.515          5.143          126.1          40.68         -163.3          17.03          149.4
    0.8113              -43.15          35.88          11.04          61.19         -5.557          4.994          127.4          41.21         -164.8          15.37          150.6
